<svg xmlns="http://www.w3.org/2000/svg" width="32" height="32" viewBox="0 0 32 32"><g class="nc-icon-wrapper" fill="#4352ff"><path fill="#4352ff" d="M19,17h-6c-0.552,0-1,0.448-1,1v13c0,0.552,0.448,1,1,1h6c0.552,0,1-0.448,1-1V18C20,17.448,19.552,17,19,17 z"></path> <path fill="#4352ff" d="M7,23H1c-0.552,0-1,0.448-1,1v7c0,0.552,0.448,1,1,1h6c0.552,0,1-0.448,1-1v-7C8,23.448,7.552,23,7,23z"></path> <path fill="#4352ff" d="M31,11h-6c-0.552,0-1,0.448-1,1v19c0,0.552,0.448,1,1,1h6c0.552,0,1-0.448,1-1V12C32,11.448,31.552,11,31,11 z"></path> <path data-color="color-2" d="M16,12c0.256,0,0.512-0.098,0.707-0.293L25,3.414V8h2V1c0-0.552-0.448-1-1-1h-7v2h4.586 L16,9.586l-4.293-4.293c-0.391-0.391-1.023-0.391-1.414,0l-5,5l1.414,1.414L11,7.414l4.293,4.293C15.488,11.902,15.744,12,16,12z"></path></g></svg>